<?xml version="1.0" standalone="no"?>
<!DOCTYPE svg PUBLIC "-//W3C//DTD SVG 20010904//EN"
 "http://www.w3.org/TR/2001/REC-SVG-20010904/DTD/svg10.dtd">
<svg version="1.0" xmlns="http://www.w3.org/2000/svg"
 width="500.000000pt" height="500.000000pt" viewBox="0 0 500.000000 500.000000"
 preserveAspectRatio="xMidYMid meet">
<metadata>
Created by potrace 1.16, written by Peter Selinger 2001-2019
</metadata>
<g transform="translate(0.000000,500.000000) scale(0.100000,-0.100000)"
fill="#000000" stroke="none">
<path d="M267 2470 c-119 -30 -186 -125 -158 -227 17 -61 64 -97 168 -128 128
-38 166 -90 101 -138 -38 -28 -87 -14 -107 31 l-15 33 -75 -3 -76 -3 3 -35 c7
-89 105 -155 228 -154 154 1 258 109 224 233 -16 59 -65 96 -167 127 -95 28
-133 54 -133 91 0 26 32 63 55 63 29 0 66 -24 71 -47 6 -22 11 -23 89 -23 l82
0 -7 41 c-4 23 -16 53 -27 68 -41 56 -169 92 -256 71z"/>
<path d="M667 2463 c-4 -3 -7 -143 -7 -310 l0 -303 75 0 74 0 3 128 3 127 118
3 117 3 0 -131 0 -130 75 0 75 0 0 310 0 310 -75 0 -75 0 0 -125 0 -125 -120
0 -120 0 0 125 0 125 -68 0 c-38 0 -72 -3 -75 -7z"/>
<path d="M1310 2160 l0 -310 75 0 75 0 0 121 c0 88 3 120 12 117 6 -2 41 -57
77 -121 l66 -116 88 -1 c49 0 87 3 85 8 -1 4 -33 58 -70 119 -38 61 -68 115
-68 119 0 5 15 16 32 24 84 40 122 153 79 237 -45 88 -113 113 -313 113 l-138
0 0 -310z m299 164 c26 -33 27 -65 2 -95 -15 -19 -30 -24 -85 -27 l-66 -4 0
76 0 76 64 0 c58 0 67 -3 85 -26z"/>
<path d="M2003 2378 c-17 -51 -65 -191 -107 -311 l-76 -218 82 3 82 3 15 48
15 47 112 0 112 0 17 -50 17 -50 80 0 c60 0 79 3 76 13 -3 6 -51 146 -108 310
l-103 297 -91 0 -92 0 -31 -92z m161 -206 l35 -102 -70 0 c-48 0 -69 4 -69 12
0 19 61 200 66 195 2 -2 20 -50 38 -105z"/>
<path d="M2480 2160 l0 -310 139 0 c172 0 244 19 315 81 72 63 100 126 100
224 1 97 -26 167 -85 219 -82 75 -159 96 -344 96 l-125 0 0 -310z m303 176
c73 -30 116 -127 98 -222 -16 -84 -76 -138 -166 -149 -89 -12 -85 -21 -85 195
l0 190 60 0 c33 0 75 -6 93 -14z"/>
<path d="M3110 2160 l0 -312 158 4 c143 3 162 6 212 29 76 35 124 80 156 145
38 78 38 190 0 268 -33 67 -90 118 -165 148 -46 18 -82 22 -208 26 l-153 4 0
-312z m329 161 c85 -61 96 -220 22 -305 -26 -30 -65 -45 -135 -52 l-66 -7 0
198 0 197 73 -3 c56 -3 79 -9 106 -28z"/>
<path d="M3740 2160 l0 -310 75 0 75 0 0 130 0 131 118 -3 117 -3 3 -127 3
-128 74 0 75 0 0 310 0 310 -75 0 -75 0 0 -125 0 -125 -120 0 -120 0 0 125 0
125 -75 0 -75 0 0 -310z"/>
<path d="M4518 2393 c-14 -43 -62 -183 -107 -311 l-81 -233 82 3 82 3 15 48
15 47 112 0 112 0 17 -50 17 -50 79 0 c43 0 79 1 79 3 0 1 -47 139 -105 306
-58 167 -105 306 -105 307 0 2 -42 4 -93 4 l-93 0 -26 -77z m156 -221 l35
-102 -73 0 -73 0 34 106 c19 58 37 104 39 101 2 -2 20 -50 38 -105z"/>
</g>
</svg>
